<mxfile host="app.diagrams.net" agent="Mozilla/5.0 (Windows NT 10.0; Win64; x64) AppleWebKit/537.36 (KHTML, like Gecko) Chrome/128.0.0.0 Safari/537.36" version="24.7.12">
  <diagram name="Página-1" id="L01x4OZknWeSqtcDdGDV">
    <mxGraphModel dx="1647" dy="2017" grid="0" gridSize="10" guides="1" tooltips="1" connect="1" arrows="1" fold="1" page="1" pageScale="1" pageWidth="827" pageHeight="1169" math="0" shadow="0">
      <root>
        <mxCell id="0" />
        <mxCell id="1" parent="0" />
        <mxCell id="jzFVb9ClvFBaIrC0epAQ-5" value="Empresa" style="swimlane;" vertex="1" parent="1">
          <mxGeometry x="130" y="50" width="590" height="670" as="geometry">
            <mxRectangle x="130" y="140" width="90" height="30" as="alternateBounds" />
          </mxGeometry>
        </mxCell>
        <mxCell id="jzFVb9ClvFBaIrC0epAQ-10" value="&lt;b&gt;Fábrica 2&lt;/b&gt;&lt;div&gt;&lt;br&gt;&lt;/div&gt;&lt;div&gt;&lt;br&gt;&lt;/div&gt;&lt;div&gt;&lt;br&gt;&lt;/div&gt;&lt;div&gt;8 linhas de produção&lt;/div&gt;&lt;div&gt;Produtos por linha variados por dia&lt;/div&gt;" style="whiteSpace=wrap;html=1;fillColor=#fff2cc;strokeColor=#d6b656;" vertex="1" parent="jzFVb9ClvFBaIrC0epAQ-5">
          <mxGeometry x="350" y="169" width="210" height="110" as="geometry" />
        </mxCell>
        <mxCell id="jzFVb9ClvFBaIrC0epAQ-11" value="&lt;b&gt;Fábrica 1&lt;/b&gt;&lt;div&gt;&lt;br&gt;&lt;/div&gt;&lt;div&gt;&lt;br&gt;&lt;/div&gt;&lt;div&gt;&lt;br&gt;&lt;/div&gt;&lt;div&gt;5 linhas de produção&lt;/div&gt;&lt;div&gt;48 produtos por linha (LOTE)&lt;/div&gt;" style="whiteSpace=wrap;html=1;fillColor=#fff2cc;strokeColor=#d6b656;" vertex="1" parent="jzFVb9ClvFBaIrC0epAQ-5">
          <mxGeometry x="30" y="169" width="210" height="110" as="geometry" />
        </mxCell>
        <mxCell id="jzFVb9ClvFBaIrC0epAQ-13" value="" style="shape=singleArrow;direction=south;whiteSpace=wrap;html=1;" vertex="1" parent="jzFVb9ClvFBaIrC0epAQ-5">
          <mxGeometry x="105" y="300" width="60" height="70" as="geometry" />
        </mxCell>
        <mxCell id="jzFVb9ClvFBaIrC0epAQ-12" value="" style="shape=singleArrow;direction=south;whiteSpace=wrap;html=1;" vertex="1" parent="jzFVb9ClvFBaIrC0epAQ-5">
          <mxGeometry x="430" y="300" width="60" height="70" as="geometry" />
        </mxCell>
        <mxCell id="jzFVb9ClvFBaIrC0epAQ-62" style="edgeStyle=orthogonalEdgeStyle;rounded=0;orthogonalLoop=1;jettySize=auto;html=1;exitX=0.5;exitY=1;exitDx=0;exitDy=0;entryX=0.5;entryY=0;entryDx=0;entryDy=0;" edge="1" parent="jzFVb9ClvFBaIrC0epAQ-5" source="jzFVb9ClvFBaIrC0epAQ-16" target="jzFVb9ClvFBaIrC0epAQ-59">
          <mxGeometry relative="1" as="geometry">
            <mxPoint x="460" y="490" as="targetPoint" />
          </mxGeometry>
        </mxCell>
        <mxCell id="jzFVb9ClvFBaIrC0epAQ-16" value="&lt;b&gt;Produtos&lt;/b&gt;&lt;div&gt;&lt;br&gt;&lt;/div&gt;&lt;div&gt;5 versões (Pv1, Pv2...)&lt;/div&gt;" style="rounded=1;whiteSpace=wrap;html=1;fillColor=#dae8fc;strokeColor=#6c8ebf;" vertex="1" parent="jzFVb9ClvFBaIrC0epAQ-5">
          <mxGeometry x="355" y="385" width="210" height="60" as="geometry" />
        </mxCell>
        <mxCell id="jzFVb9ClvFBaIrC0epAQ-60" style="edgeStyle=orthogonalEdgeStyle;rounded=0;orthogonalLoop=1;jettySize=auto;html=1;exitX=0.5;exitY=1;exitDx=0;exitDy=0;entryX=0.5;entryY=0;entryDx=0;entryDy=0;" edge="1" parent="jzFVb9ClvFBaIrC0epAQ-5" source="jzFVb9ClvFBaIrC0epAQ-17" target="jzFVb9ClvFBaIrC0epAQ-59">
          <mxGeometry relative="1" as="geometry" />
        </mxCell>
        <mxCell id="jzFVb9ClvFBaIrC0epAQ-17" value="&lt;b&gt;Produtos&lt;/b&gt;&lt;div&gt;&lt;br&gt;&lt;/div&gt;&lt;div&gt;5 versões (Pv1, Pv2...)&lt;/div&gt;" style="rounded=1;whiteSpace=wrap;html=1;fillColor=#dae8fc;strokeColor=#6c8ebf;" vertex="1" parent="jzFVb9ClvFBaIrC0epAQ-5">
          <mxGeometry x="30" y="385" width="210" height="60" as="geometry" />
        </mxCell>
        <mxCell id="jzFVb9ClvFBaIrC0epAQ-43" value="Produz as 5 versões todos os dias" style="text;html=1;align=center;verticalAlign=middle;whiteSpace=wrap;rounded=0;" vertex="1" parent="jzFVb9ClvFBaIrC0epAQ-5">
          <mxGeometry x="150" y="310" width="60" height="30" as="geometry" />
        </mxCell>
        <mxCell id="jzFVb9ClvFBaIrC0epAQ-44" value="Versões dependem do dia" style="text;html=1;align=center;verticalAlign=middle;whiteSpace=wrap;rounded=0;" vertex="1" parent="jzFVb9ClvFBaIrC0epAQ-5">
          <mxGeometry x="480" y="310" width="60" height="30" as="geometry" />
        </mxCell>
        <mxCell id="jzFVb9ClvFBaIrC0epAQ-59" value="&lt;b&gt;Estoque de Produtos&amp;nbsp;&lt;/b&gt;&lt;div&gt;&lt;br&gt;&lt;/div&gt;&lt;div&gt;&lt;br&gt;&lt;/div&gt;&lt;div&gt;Nível de estoque de produtos (Pv1...)&lt;/div&gt;" style="shape=hexagon;perimeter=hexagonPerimeter2;whiteSpace=wrap;html=1;fixedSize=1;fillColor=#d5e8d4;strokeColor=#82b366;" vertex="1" parent="jzFVb9ClvFBaIrC0epAQ-5">
          <mxGeometry x="177.5" y="550" width="235" height="80" as="geometry" />
        </mxCell>
        <mxCell id="jzFVb9ClvFBaIrC0epAQ-75" style="edgeStyle=orthogonalEdgeStyle;rounded=0;orthogonalLoop=1;jettySize=auto;html=1;exitX=0.5;exitY=1;exitDx=0;exitDy=0;entryX=0.5;entryY=0;entryDx=0;entryDy=0;" edge="1" parent="jzFVb9ClvFBaIrC0epAQ-5" source="jzFVb9ClvFBaIrC0epAQ-74" target="jzFVb9ClvFBaIrC0epAQ-11">
          <mxGeometry relative="1" as="geometry" />
        </mxCell>
        <mxCell id="jzFVb9ClvFBaIrC0epAQ-76" style="edgeStyle=orthogonalEdgeStyle;rounded=0;orthogonalLoop=1;jettySize=auto;html=1;exitX=0.5;exitY=1;exitDx=0;exitDy=0;entryX=0.5;entryY=0;entryDx=0;entryDy=0;" edge="1" parent="jzFVb9ClvFBaIrC0epAQ-5" source="jzFVb9ClvFBaIrC0epAQ-74" target="jzFVb9ClvFBaIrC0epAQ-10">
          <mxGeometry relative="1" as="geometry" />
        </mxCell>
        <mxCell id="jzFVb9ClvFBaIrC0epAQ-74" value="&lt;b&gt;Almoxarifado (estoque de partes)&lt;/b&gt;&lt;div&gt;&lt;b&gt;&lt;br&gt;&lt;/b&gt;&lt;/div&gt;&lt;div&gt;&lt;b&gt;&lt;br&gt;&lt;/b&gt;&lt;/div&gt;&lt;div&gt;&lt;span style=&quot;text-align: left;&quot;&gt;Abastece partes nas linhas de produção&lt;/span&gt;&lt;b&gt;&lt;br&gt;&lt;/b&gt;&lt;/div&gt;" style="shape=trapezoid;perimeter=trapezoidPerimeter;whiteSpace=wrap;html=1;fixedSize=1;fillColor=#f8cecc;strokeColor=#b85450;" vertex="1" parent="jzFVb9ClvFBaIrC0epAQ-5">
          <mxGeometry x="86.25" y="50" width="417.5" height="80" as="geometry" />
        </mxCell>
        <mxCell id="jzFVb9ClvFBaIrC0epAQ-145" value="Abastece partes" style="text;html=1;align=center;verticalAlign=middle;whiteSpace=wrap;rounded=0;" vertex="1" parent="jzFVb9ClvFBaIrC0epAQ-5">
          <mxGeometry x="265" y="160" width="60" height="30" as="geometry" />
        </mxCell>
        <mxCell id="jzFVb9ClvFBaIrC0epAQ-20" value="&lt;b&gt;Produtos&lt;/b&gt;" style="swimlane;fontStyle=0;childLayout=stackLayout;horizontal=1;startSize=26;fillColor=#dae8fc;horizontalStack=0;resizeParent=1;resizeParentMax=0;resizeLast=0;collapsible=1;marginBottom=0;html=1;strokeColor=#6c8ebf;rounded=0;" vertex="1" parent="1">
          <mxGeometry x="760" y="400" width="250" height="104" as="geometry">
            <mxRectangle x="40" y="680" width="90" height="30" as="alternateBounds" />
          </mxGeometry>
        </mxCell>
        <mxCell id="jzFVb9ClvFBaIrC0epAQ-21" value="- Composto por partes" style="text;strokeColor=none;fillColor=none;align=left;verticalAlign=top;spacingLeft=4;spacingRight=4;overflow=hidden;rotatable=0;points=[[0,0.5],[1,0.5]];portConstraint=eastwest;whiteSpace=wrap;html=1;" vertex="1" parent="jzFVb9ClvFBaIrC0epAQ-20">
          <mxGeometry y="26" width="250" height="26" as="geometry" />
        </mxCell>
        <mxCell id="jzFVb9ClvFBaIrC0epAQ-22" value="&lt;span style=&quot;white-space: pre;&quot;&gt;&#x9;&lt;/span&gt;- 43 partes padrão" style="text;strokeColor=none;fillColor=none;align=left;verticalAlign=top;spacingLeft=4;spacingRight=4;overflow=hidden;rotatable=0;points=[[0,0.5],[1,0.5]];portConstraint=eastwest;whiteSpace=wrap;html=1;" vertex="1" parent="jzFVb9ClvFBaIrC0epAQ-20">
          <mxGeometry y="52" width="250" height="26" as="geometry" />
        </mxCell>
        <mxCell id="jzFVb9ClvFBaIrC0epAQ-23" value="&lt;span style=&quot;white-space: pre;&quot;&gt;&#x9;&lt;/span&gt;- Variação de 20 a 33 partes" style="text;strokeColor=none;fillColor=none;align=left;verticalAlign=top;spacingLeft=4;spacingRight=4;overflow=hidden;rotatable=0;points=[[0,0.5],[1,0.5]];portConstraint=eastwest;whiteSpace=wrap;html=1;" vertex="1" parent="jzFVb9ClvFBaIrC0epAQ-20">
          <mxGeometry y="78" width="250" height="26" as="geometry" />
        </mxCell>
        <mxCell id="jzFVb9ClvFBaIrC0epAQ-45" value="&lt;b&gt;Fábricas&lt;/b&gt;" style="swimlane;fontStyle=0;childLayout=stackLayout;horizontal=1;startSize=26;fillColor=#fff2cc;horizontalStack=0;resizeParent=1;resizeParentMax=0;resizeLast=0;collapsible=1;marginBottom=0;html=1;strokeColor=#d6b656;rounded=0;" vertex="1" parent="1">
          <mxGeometry x="760" y="280" width="350" height="78" as="geometry">
            <mxRectangle x="40" y="680" width="90" height="30" as="alternateBounds" />
          </mxGeometry>
        </mxCell>
        <mxCell id="jzFVb9ClvFBaIrC0epAQ-46" value="- Linhas consomem partes de forma aleatória" style="text;strokeColor=none;fillColor=none;align=left;verticalAlign=top;spacingLeft=4;spacingRight=4;overflow=hidden;rotatable=0;points=[[0,0.5],[1,0.5]];portConstraint=eastwest;whiteSpace=wrap;html=1;" vertex="1" parent="jzFVb9ClvFBaIrC0epAQ-45">
          <mxGeometry y="26" width="350" height="26" as="geometry" />
        </mxCell>
        <mxCell id="jzFVb9ClvFBaIrC0epAQ-47" value="- Monitorar estoque de partes em cada linha para cada parte" style="text;strokeColor=#666666;fillColor=#f5f5f5;align=left;verticalAlign=top;spacingLeft=4;spacingRight=4;overflow=hidden;rotatable=0;points=[[0,0.5],[1,0.5]];portConstraint=eastwest;whiteSpace=wrap;html=1;shadow=0;fontColor=#333333;" vertex="1" parent="jzFVb9ClvFBaIrC0epAQ-45">
          <mxGeometry y="52" width="350" height="26" as="geometry" />
        </mxCell>
        <mxCell id="jzFVb9ClvFBaIrC0epAQ-144" style="edgeStyle=orthogonalEdgeStyle;rounded=0;orthogonalLoop=1;jettySize=auto;html=1;exitX=1;exitY=0.5;exitDx=0;exitDy=0;" edge="1" parent="jzFVb9ClvFBaIrC0epAQ-45" source="jzFVb9ClvFBaIrC0epAQ-47" target="jzFVb9ClvFBaIrC0epAQ-47">
          <mxGeometry relative="1" as="geometry" />
        </mxCell>
        <mxCell id="jzFVb9ClvFBaIrC0epAQ-63" value="&lt;b&gt;Estoque de produtos&lt;/b&gt;" style="swimlane;fontStyle=0;childLayout=stackLayout;horizontal=1;startSize=26;fillColor=#d5e8d4;horizontalStack=0;resizeParent=1;resizeParentMax=0;resizeLast=0;collapsible=1;marginBottom=0;html=1;strokeColor=#82b366;rounded=0;" vertex="1" parent="1">
          <mxGeometry x="760" y="520" width="280" height="100" as="geometry">
            <mxRectangle x="40" y="680" width="90" height="30" as="alternateBounds" />
          </mxGeometry>
        </mxCell>
        <mxCell id="jzFVb9ClvFBaIrC0epAQ-64" value="- Calcular quantos produtos devem ser fabricados em função do estoque de cada produto" style="text;strokeColor=none;fillColor=none;align=left;verticalAlign=top;spacingLeft=4;spacingRight=4;overflow=hidden;rotatable=0;points=[[0,0.5],[1,0.5]];portConstraint=eastwest;whiteSpace=wrap;html=1;" vertex="1" parent="jzFVb9ClvFBaIrC0epAQ-63">
          <mxGeometry y="26" width="280" height="74" as="geometry" />
        </mxCell>
        <mxCell id="jzFVb9ClvFBaIrC0epAQ-71" value="&lt;b&gt;Consumos&lt;/b&gt;&lt;div&gt;&lt;br&gt;&lt;/div&gt;&lt;div&gt;Pedidos de Produtos&lt;/div&gt;" style="rounded=0;whiteSpace=wrap;html=1;fillColor=#e1d5e7;strokeColor=#9673a6;" vertex="1" parent="1">
          <mxGeometry x="343" y="750" width="164" height="60" as="geometry" />
        </mxCell>
        <mxCell id="jzFVb9ClvFBaIrC0epAQ-77" value="&lt;b&gt;Almoxarifado (estoque de partes)&lt;/b&gt;" style="swimlane;fontStyle=0;childLayout=stackLayout;horizontal=1;startSize=26;fillColor=#f8cecc;horizontalStack=0;resizeParent=1;resizeParentMax=0;resizeLast=0;collapsible=1;marginBottom=0;html=1;strokeColor=#b85450;rounded=0;" vertex="1" parent="1">
          <mxGeometry x="760" y="90" width="300" height="156" as="geometry">
            <mxRectangle x="40" y="680" width="90" height="30" as="alternateBounds" />
          </mxGeometry>
        </mxCell>
        <mxCell id="jzFVb9ClvFBaIrC0epAQ-78" value="- Nível de estoque VERDE, AMARELO, VERMELHO" style="text;strokeColor=none;fillColor=none;align=left;verticalAlign=top;spacingLeft=4;spacingRight=4;overflow=hidden;rotatable=0;points=[[0,0.5],[1,0.5]];portConstraint=eastwest;whiteSpace=wrap;html=1;" vertex="1" parent="jzFVb9ClvFBaIrC0epAQ-77">
          <mxGeometry y="26" width="300" height="26" as="geometry" />
        </mxCell>
        <mxCell id="jzFVb9ClvFBaIrC0epAQ-79" value="&lt;span style=&quot;white-space: pre;&quot;&gt;&#x9;&lt;/span&gt;- Próximo de VERMELHO, dispara ordem de reabastecimento" style="text;strokeColor=none;fillColor=none;align=left;verticalAlign=top;spacingLeft=4;spacingRight=4;overflow=hidden;rotatable=0;points=[[0,0.5],[1,0.5]];portConstraint=eastwest;whiteSpace=wrap;html=1;" vertex="1" parent="jzFVb9ClvFBaIrC0epAQ-77">
          <mxGeometry y="52" width="300" height="38" as="geometry" />
        </mxCell>
        <mxCell id="jzFVb9ClvFBaIrC0epAQ-80" value="- Lote de fabricação de partes para o dia" style="text;strokeColor=none;fillColor=none;align=left;verticalAlign=top;spacingLeft=4;spacingRight=4;overflow=hidden;rotatable=0;points=[[0,0.5],[1,0.5]];portConstraint=eastwest;whiteSpace=wrap;html=1;" vertex="1" parent="jzFVb9ClvFBaIrC0epAQ-77">
          <mxGeometry y="90" width="300" height="26" as="geometry" />
        </mxCell>
        <mxCell id="jzFVb9ClvFBaIrC0epAQ-142" value="&lt;span style=&quot;color: rgb(0, 0, 0); font-family: Helvetica; font-size: 12px; font-style: normal; font-variant-ligatures: normal; font-variant-caps: normal; font-weight: 400; letter-spacing: normal; orphans: 2; text-align: left; text-indent: 0px; text-transform: none; widows: 2; word-spacing: 0px; -webkit-text-stroke-width: 0px; white-space: nowrap; background-color: rgb(251, 251, 251); text-decoration-thickness: initial; text-decoration-style: initial; text-decoration-color: initial; display: inline !important; float: none;&quot;&gt;&amp;nbsp; - Total de partes diferentes = 100&lt;/span&gt;" style="text;whiteSpace=wrap;html=1;" vertex="1" parent="jzFVb9ClvFBaIrC0epAQ-77">
          <mxGeometry y="116" width="300" height="40" as="geometry" />
        </mxCell>
        <mxCell id="jzFVb9ClvFBaIrC0epAQ-85" value="&lt;b&gt;Consumos&lt;/b&gt;" style="swimlane;fontStyle=0;childLayout=stackLayout;horizontal=1;startSize=26;fillColor=#e1d5e7;horizontalStack=0;resizeParent=1;resizeParentMax=0;resizeLast=0;collapsible=1;marginBottom=0;html=1;strokeColor=#9673a6;rounded=0;" vertex="1" parent="1">
          <mxGeometry x="760" y="650" width="260" height="72" as="geometry">
            <mxRectangle x="40" y="680" width="90" height="30" as="alternateBounds" />
          </mxGeometry>
        </mxCell>
        <mxCell id="jzFVb9ClvFBaIrC0epAQ-86" value="- Pedidos são &lt;b&gt;aleatórios&lt;/b&gt; dia a dia" style="text;strokeColor=none;fillColor=none;align=left;verticalAlign=top;spacingLeft=4;spacingRight=4;overflow=hidden;rotatable=0;points=[[0,0.5],[1,0.5]];portConstraint=eastwest;whiteSpace=wrap;html=1;" vertex="1" parent="jzFVb9ClvFBaIrC0epAQ-85">
          <mxGeometry y="26" width="260" height="26" as="geometry" />
        </mxCell>
        <mxCell id="jzFVb9ClvFBaIrC0epAQ-89" value="" style="shape=table;startSize=0;container=1;collapsible=1;childLayout=tableLayout;fixedRows=1;rowLines=0;fontStyle=0;align=center;resizeLast=1;strokeColor=none;fillColor=none;collapsible=0;whiteSpace=wrap;html=1;" vertex="1" parent="jzFVb9ClvFBaIrC0epAQ-85">
          <mxGeometry y="52" width="260" height="20" as="geometry" />
        </mxCell>
        <mxCell id="jzFVb9ClvFBaIrC0epAQ-90" value="" style="shape=tableRow;horizontal=0;startSize=0;swimlaneHead=0;swimlaneBody=0;fillColor=none;collapsible=0;dropTarget=0;points=[[0,0.5],[1,0.5]];portConstraint=eastwest;top=0;left=0;right=0;bottom=0;" vertex="1" parent="jzFVb9ClvFBaIrC0epAQ-89">
          <mxGeometry width="260" height="20" as="geometry" />
        </mxCell>
        <mxCell id="jzFVb9ClvFBaIrC0epAQ-91" value="" style="shape=partialRectangle;connectable=0;fillColor=none;top=0;left=0;bottom=0;right=0;editable=1;overflow=hidden;" vertex="1" parent="jzFVb9ClvFBaIrC0epAQ-90">
          <mxGeometry width="20" height="20" as="geometry">
            <mxRectangle width="20" height="20" as="alternateBounds" />
          </mxGeometry>
        </mxCell>
        <mxCell id="jzFVb9ClvFBaIrC0epAQ-92" value="" style="shape=partialRectangle;connectable=0;fillColor=none;top=0;left=0;bottom=0;right=0;align=left;spacingLeft=6;overflow=hidden;" vertex="1" parent="jzFVb9ClvFBaIrC0epAQ-90">
          <mxGeometry x="20" width="240" height="20" as="geometry">
            <mxRectangle width="240" height="20" as="alternateBounds" />
          </mxGeometry>
        </mxCell>
        <mxCell id="jzFVb9ClvFBaIrC0epAQ-96" style="edgeStyle=orthogonalEdgeStyle;rounded=0;orthogonalLoop=1;jettySize=auto;html=1;exitX=0.5;exitY=1;exitDx=0;exitDy=0;entryX=0.5;entryY=0;entryDx=0;entryDy=0;" edge="1" parent="1" source="jzFVb9ClvFBaIrC0epAQ-93" target="jzFVb9ClvFBaIrC0epAQ-74">
          <mxGeometry relative="1" as="geometry" />
        </mxCell>
        <mxCell id="jzFVb9ClvFBaIrC0epAQ-93" value="&lt;b&gt;Fornecedores&lt;/b&gt;&lt;div&gt;&lt;br&gt;&lt;/div&gt;&lt;div&gt;Recebem ordem de compra&lt;/div&gt;" style="rounded=0;whiteSpace=wrap;html=1;fillColor=#ffe6cc;strokeColor=#d79b00;" vertex="1" parent="1">
          <mxGeometry x="343" y="-30" width="165" height="60" as="geometry" />
        </mxCell>
        <mxCell id="jzFVb9ClvFBaIrC0epAQ-97" style="edgeStyle=orthogonalEdgeStyle;rounded=0;orthogonalLoop=1;jettySize=auto;html=1;exitX=0.5;exitY=1;exitDx=0;exitDy=0;entryX=0.5;entryY=0;entryDx=0;entryDy=0;" edge="1" parent="1" source="jzFVb9ClvFBaIrC0epAQ-59" target="jzFVb9ClvFBaIrC0epAQ-71">
          <mxGeometry relative="1" as="geometry" />
        </mxCell>
        <mxCell id="jzFVb9ClvFBaIrC0epAQ-143" style="edgeStyle=orthogonalEdgeStyle;rounded=0;orthogonalLoop=1;jettySize=auto;html=1;exitX=1;exitY=0.5;exitDx=0;exitDy=0;entryX=1;entryY=0.064;entryDx=0;entryDy=0;entryPerimeter=0;" edge="1" parent="1" source="jzFVb9ClvFBaIrC0epAQ-47" target="jzFVb9ClvFBaIrC0epAQ-77">
          <mxGeometry relative="1" as="geometry" />
        </mxCell>
      </root>
    </mxGraphModel>
  </diagram>
</mxfile>
